<svg width="0" height="0" class="hidden">
  <symbol fill="none" xmlns="http://www.w3.org/2000/svg" viewBox="0 0 38 38" id="facebook">
    <rect y="0.193848" width="37.024" height="37.024" rx="10.68" fill="#F6F6F6"></rect>
    <path d="M22.4368 19.4627L22.9311 16.2413H19.8401V14.1509C19.8401 13.2695 20.2719 12.4105 21.6563 12.4105H23.0615V9.66783C23.0615 9.66783 21.7863 9.4502 20.5671 9.4502C18.0215 9.4502 16.3577 10.9931 16.3577 13.7862V16.2413H13.5281V19.4627H16.3577V27.2502H19.8401V19.4627H22.4368Z" fill="#2A2F2F"></path>
  </symbol>
  <symbol fill="none" xmlns="http://www.w3.org/2000/svg" viewBox="0 0 22 33" id="app_store">
    <path d="M18.9334 0.931152H3.02932C1.72644 0.931152 0.670654 1.9869 0.670654 3.28978V30.2009C0.670654 31.5038 1.72644 32.5596 3.02932 32.5596H18.9334C20.2363 32.5596 21.2921 31.5038 21.2921 30.2009V3.28978C21.2921 2.00937 20.2138 0.931152 18.9334 0.931152Z" fill="white"></path>
    <path d="M20.1466 4.72754H1.79395V26.9214H20.1466V4.72754Z" fill="#404040"></path>
    <path d="M14.7328 2.34619H7.20758C6.91556 2.34619 6.646 2.59329 6.646 2.90778C6.646 3.22226 6.89309 3.46936 7.20758 3.46936H14.7328C15.0249 3.46936 15.2944 3.22226 15.2944 2.90778C15.2944 2.61575 15.0473 2.34619 14.7328 2.34619Z" fill="#6639A6"></path>
    <path d="M9.18457 29.5944C9.18457 28.606 9.99326 27.7749 10.9816 27.7749C11.97 27.7749 12.8012 28.5836 12.8012 29.5944C12.8012 30.5828 11.9925 31.3915 10.9816 31.3915C9.99326 31.4139 9.18457 30.6053 9.18457 29.5944Z" fill="#6639A6"></path>
  </symbol>
  <symbol fill="none" xmlns="http://www.w3.org/2000/svg" viewBox="0 0 38 38" id="instagram">
    <rect x="-0.00805664" y="0.193848" width="37.024" height="37.024" rx="10.68" fill="#F6F6F6"></rect>
    <path d="M18.4657 14.6696C16.2546 14.6696 14.4711 16.453 14.4711 18.6641C14.4711 20.8752 16.2546 22.6587 18.4657 22.6587C20.6768 22.6587 22.4603 20.8752 22.4603 18.6641C22.4603 16.453 20.6768 14.6696 18.4657 14.6696ZM18.4657 21.2611C17.0368 21.2611 15.8687 20.0965 15.8687 18.6641C15.8687 17.2318 17.0334 16.0671 18.4657 16.0671C19.898 16.0671 21.0627 17.2318 21.0627 18.6641C21.0627 20.0965 19.8946 21.2611 18.4657 21.2611ZM23.5554 14.5062C23.5554 15.0242 23.1382 15.4379 22.6237 15.4379C22.1057 15.4379 21.692 15.0207 21.692 14.5062C21.692 13.9916 22.1091 13.5744 22.6237 13.5744C23.1382 13.5744 23.5554 13.9916 23.5554 14.5062ZM26.2011 15.4518C26.142 14.2037 25.8569 13.0982 24.9425 12.1873C24.0317 11.2764 22.9261 10.9914 21.678 10.9288C20.3917 10.8558 16.5362 10.8558 15.2499 10.9288C14.0053 10.9879 12.8997 11.273 11.9854 12.1838C11.0711 13.0947 10.7895 14.2002 10.7269 15.4483C10.6539 16.7346 10.6539 20.5901 10.7269 21.8765C10.786 23.1246 11.0711 24.2301 11.9854 25.141C12.8997 26.0518 14.0018 26.3369 15.2499 26.3995C16.5362 26.4725 20.3917 26.4725 21.678 26.3995C22.9261 26.3404 24.0317 26.0553 24.9425 25.141C25.8534 24.2301 26.1385 23.1246 26.2011 21.8765C26.2741 20.5901 26.2741 16.7381 26.2011 15.4518ZM24.5393 23.2567C24.2681 23.9381 23.7431 24.463 23.0582 24.7377C22.0327 25.1444 19.5991 25.0506 18.4657 25.0506C17.3323 25.0506 14.8953 25.141 13.8732 24.7377C13.1918 24.4665 12.6668 23.9416 12.3921 23.2567C11.9854 22.2311 12.0793 19.7975 12.0793 18.6641C12.0793 17.5308 11.9889 15.0937 12.3921 14.0716C12.6633 13.3902 13.1883 12.8652 13.8732 12.5906C14.8988 12.1838 17.3323 12.2777 18.4657 12.2777C19.5991 12.2777 22.0361 12.1873 23.0582 12.5906C23.7396 12.8617 24.2646 13.3867 24.5393 14.0716C24.946 15.0972 24.8521 17.5308 24.8521 18.6641C24.8521 19.7975 24.946 22.2346 24.5393 23.2567Z" fill="#2A2F2F"></path>
  </symbol>
  <symbol fill="none" xmlns="http://www.w3.org/2000/svg" viewBox="0 0 31 34" id="play_market">
    <path d="M0.670654 33.3127V0.336426L30.3224 16.3528L0.670654 33.3127Z" fill="#5CA9B3"></path>
    <path d="M0.670654 0.336426L21.6515 21.3172L30.3224 16.3528L0.670654 0.336426Z" fill="#C8DB9B"></path>
    <path d="M21.4718 11.5679L0.670654 33.3125L30.3224 16.3526L21.4718 11.5679Z" fill="#AC5067"></path>
    <path d="M21.6517 21.317L30.3225 16.3526L21.4719 11.5679L16.7996 16.4649L21.6517 21.317Z" fill="#F4A676"></path>
  </symbol>
  <symbol fill="none" xmlns="http://www.w3.org/2000/svg" viewBox="0 0 21 11" id="shevron">
    <path d="M1.814 1.75049L9.30837 9.14195C9.86133 9.68731 10.7578 9.68731 11.3108 9.14195L18.8052 1.75049" stroke="#F6F6F6" stroke-width="2.88" stroke-linecap="round"></path>
  </symbol>
  <symbol fill="none" xmlns="http://www.w3.org/2000/svg" viewBox="0 0 38 38" id="twitter">
    <rect x="0.983887" y="0.193848" width="37.024" height="37.024" rx="10.68" fill="#F6F6F6"></rect>
    <path d="M28.3463 15.1888C28.3576 15.347 28.3576 15.5051 28.3576 15.6632C28.3576 20.4859 24.6869 26.0428 17.978 26.0428C15.9111 26.0428 13.9911 25.4441 12.376 24.4051C12.6696 24.439 12.952 24.4503 13.2569 24.4503C14.9624 24.4503 16.5323 23.8743 17.786 22.8916C16.1822 22.8578 14.8381 21.8074 14.3751 20.3617C14.601 20.3955 14.8268 20.4181 15.0641 20.4181C15.3916 20.4181 15.7191 20.3729 16.0241 20.2939C14.3525 19.9551 13.0988 18.4868 13.0988 16.7136V16.6684C13.5844 16.9395 14.1492 17.1089 14.7478 17.1315C13.7651 16.4764 13.1214 15.3583 13.1214 14.0933C13.1214 13.4156 13.3021 12.7944 13.6183 12.2523C15.4141 14.466 18.1135 15.9117 21.1404 16.0698C21.0839 15.7987 21.05 15.5164 21.05 15.234C21.05 13.2236 22.6764 11.5859 24.6981 11.5859C25.7485 11.5859 26.6972 12.0264 27.3636 12.738C28.1881 12.5799 28.9787 12.2749 29.679 11.857C29.4079 12.7041 28.8319 13.4157 28.0752 13.8674C28.8093 13.7884 29.5209 13.585 30.1759 13.3027C29.679 14.0255 29.0578 14.6693 28.3463 15.1888Z" fill="#2A2F2F"></path>
  </symbol>
</svg>