<svg width="0" height="0" class="hidden">
  <symbol fill="none" xmlns="http://www.w3.org/2000/svg" viewBox="0 0 23 27" id="arrow_down">
    <path d="M11.5678 1.61938L11.5678 24.2225M22 15.529L12.7972 24.7318C12.1182 25.4108 11.0173 25.4108 10.3383 24.7318L1.13557 15.529" stroke="#3C4242" stroke-width="2" stroke-linecap="round"></path>
  </symbol>
  <symbol fill="none" xmlns="http://www.w3.org/2000/svg" viewBox="0 0 16 14" id="arrow_left">
    <path d="M14.5857 7L1.58569 7M6.58569 13L1.2928 7.70711C0.902277 7.31658 0.902277 6.68342 1.2928 6.29289L6.58569 0.999999" stroke="#3C4242" stroke-width="1.6" stroke-linecap="round"></path>
  </symbol>
  <symbol xmlns="http://www.w3.org/2000/svg" viewBox="0 0 20 14" id="arrow_right">
    <path d="M18.9571 7.71798C19.2843 7.39075 19.2843 6.86022 18.9571 6.533L13.6247 1.20059C13.2975 0.873368 12.7669 0.873368 12.4397 1.20059C12.1125 1.52781 12.1125 2.05835 12.4397 2.38557L17.1796 7.12549L12.4397 11.8654C12.1125 12.1926 12.1125 12.7232 12.4397 13.0504C12.7669 13.3776 13.2975 13.3776 13.6247 13.0504L18.9571 7.71798ZM0.489258 7.9634L18.3646 7.9634V6.28758L0.489258 6.28758L0.489258 7.9634Z" fill="#797979"></path>
  </symbol>
  <symbol fill="none" xmlns="http://www.w3.org/2000/svg" viewBox="0 0 24 45" id="ChevronLeft">
    <g clip-path="url(#clip0_134_249)">
      <path fill-rule="evenodd" clip-rule="evenodd" d="M23.4992 43.7723C23.3409 43.9302 23.1528 44.0554 22.9457 44.1408C22.7386 44.2263 22.5166 44.2702 22.2924 44.2702C22.0682 44.2702 21.8462 44.2263 21.6391 44.1408C21.432 44.0554 21.2439 43.9302 21.0856 43.7723L0.631046 23.4352C0.472307 23.2778 0.346367 23.0907 0.260435 22.8848C0.174505 22.6789 0.130272 22.4582 0.130272 22.2353C0.130272 22.0124 0.174505 21.7916 0.260435 21.5857C0.346367 21.3799 0.472307 21.1928 0.631046 21.0354L21.0856 0.698246C21.4057 0.380012 21.8398 0.201233 22.2924 0.201233C22.7451 0.201233 23.1792 0.380012 23.4992 0.698246C23.8193 1.01648 23.9991 1.44809 23.9991 1.89814C23.9991 2.34818 23.8193 2.7798 23.4992 3.09803L4.24809 22.2353L23.4992 41.3726C23.658 41.53 23.7839 41.717 23.8698 41.9229C23.9558 42.1288 24 42.3495 24 42.5725C24 42.7954 23.9558 43.0161 23.8698 43.222C23.7839 43.4279 23.658 43.6149 23.4992 43.7723Z" fill="white"></path>
    </g>
    <defs>
      <clipPath id="clip0_134_249">
        <rect width="24" height="44.4706" fill="white" transform="translate(24 44.4706) rotate(-180)"></rect>
      </clipPath>
    </defs>
  </symbol>
  <symbol xmlns="http://www.w3.org/2000/svg" viewBox="0 0 34 34" id="heart">
    <circle cx="17.1291" cy="16.9111" r="16.1796" fill="white"></circle>
    <path fill-rule="evenodd" clip-rule="evenodd" d="M16.7198 12.7121C15.345 11.1099 13.0523 10.6789 11.3298 12.146C9.60723 13.6131 9.36472 16.0661 10.7174 17.8013C11.8422 19.244 15.2459 22.2867 16.3615 23.2716C16.4863 23.3817 16.5487 23.4368 16.6215 23.4585C16.685 23.4774 16.7545 23.4774 16.8181 23.4585C16.8909 23.4368 16.9533 23.3817 17.0781 23.2716C18.1936 22.2867 21.5974 19.244 22.7221 17.8013C24.0748 16.0661 23.8619 13.5977 22.1098 12.146C20.3576 10.6943 18.0946 11.1099 16.7198 12.7121Z" stroke="#3C4242" stroke-width="1.26066" stroke-linecap="round" stroke-linejoin="round"></path>
  </symbol>
  <symbol fill="none" xmlns="http://www.w3.org/2000/svg" viewBox="0 0 24 24" id="star_filled">
    <path d="M11.9141 16.8835L17.8865 20.4882L16.3015 13.6943L21.5781 9.12325L14.6297 8.53374L11.9141 2.12646L9.19846 8.53374L2.25 9.12325L7.52658 13.6943L5.94167 20.4882L11.9141 16.8835Z" fill="#EDD146"></path>
  </symbol>
  <symbol fill="none" xmlns="http://www.w3.org/2000/svg" viewBox="0 0 24 24" id="star_half">
    <path d="M21.824 9.12325L14.8755 8.52407L12.1599 2.12646L9.44431 8.53374L2.49585 9.12325L7.77243 13.6943L6.18752 20.4882L12.1599 16.8835L18.1323 20.4882L16.5571 13.6943L21.824 9.12325ZM12.1599 15.0763V6.08873L13.8125 9.99301L18.0453 10.3602L14.8369 13.1435L15.8033 17.2797L12.1599 15.0763Z" fill="#EDD146"></path>
  </symbol>
  <symbol fill="none" xmlns="http://www.w3.org/2000/svg" viewBox="0 0 24 24" id="star_outline">
    <path d="M21.8157 9.12325L14.8672 8.52407L12.1516 2.12646L9.43601 8.53374L2.48755 9.12325L7.76413 13.6943L6.17922 20.4882L12.1516 16.8835L18.124 20.4882L16.5488 13.6943L21.8157 9.12325ZM12.1516 15.0763L8.51792 17.2701L9.48433 13.1338L6.27586 10.3506L10.5087 9.98335L12.1516 6.08873L13.8042 9.99301L18.037 10.3602L14.8286 13.1435L15.795 17.2797L12.1516 15.0763Z" fill="#EDD146"></path>
  </symbol>
</svg>